<?xml version="1.0" encoding="UTF-8"?>
<svg id="Layer_1" data-name="Layer 1" xmlns="http://www.w3.org/2000/svg" viewBox="0 0 2803.01 810.17">
  <defs>
    <style>
      .cls-1 {
        fill: #ae00ff;
      }
    </style>
  </defs>
  <path class="cls-1" d="m55.13,49.96c25.44,26.08,46.95,55.71,64.54,87.59,17.67,32.02,31.33,66.13,41.38,101.28,10.49,36.66,16.99,74.35,20.01,112.35,3.41,42.8,2.59,85.87-1.23,128.62s-10.73,85.44-19.49,127.58c-1.1,5.29-2.23,10.57-3.38,15.85-1.23,5.65,7.44,8.06,8.68,2.39,9.33-42.65,16.88-85.72,21.55-129.14,4.65-43.24,6.37-86.85,3.9-130.3-2.25-39.56-7.97-78.96-17.96-117.32-9.37-35.98-22.44-71.07-39.44-104.14s-37.86-63.74-62.75-91.11c-3.09-3.39-6.24-6.73-9.44-10.01-4.05-4.15-10.41,2.21-6.36,6.36h0Z"/>
  <path class="cls-1" d="m9.02,211.2c4.58-47.32,21.72-93.21,48.84-132.22C82.5,43.54,121.72,2.31,169.37,9.85c22.94,3.63,44.6,16,62.13,30.89,16.28,13.83,29.81,30.73,39.62,49.7,19.12,36.97,22.56,81.5,3.48,119.19-17.78,35.13-52.57,63.6-92.48,67.99-4.91.54-9.84.71-14.77.55-3.34-.1-5.71,3.93-3.89,6.77,26.39,41.21,53.6,81.89,81.64,121.99,28.14,40.26,57.11,79.94,86.87,119.01,16.74,21.98,33.74,43.77,50.97,65.36,1.53,1.91,4.76,1.56,6.36,0,1.9-1.86,1.51-4.47,0-6.36-30.4-38.09-60.03-76.8-88.85-116.1-28.83-39.31-56.86-79.2-84.07-119.65-15.31-22.76-30.36-45.7-45.15-68.8l-3.89,6.77c43.37,1.35,83.55-23.96,107.09-59.39,11.96-18,19.5-38.74,21.49-60.27s-1.66-44.84-9.77-65.52c-16.81-42.87-51.92-79.54-95.36-95.71C178.5,1.71,165.2-.81,152.06.23c-11.96.95-23.43,4.5-34.15,9.82-21.78,10.82-39.71,28.43-54.87,47.15C31.55,96.09,10.29,143.2,2.39,192.65c-.98,6.16-1.77,12.35-2.37,18.55-.23,2.42,2.24,4.5,4.5,4.5,2.63,0,4.26-2.07,4.5-4.5h0Z"/>
  <path class="cls-1" d="m459.45,482.52c25.41-2.52,50.53-7.7,74.81-15.63,12.19-3.98,24.18-8.61,35.85-13.93,10.41-4.74,20.82-10.54,28.44-19.26,7.74-8.86,12.36-20.61,10.63-32.44-1.4-9.62-7.66-17.74-15.93-22.6s-17.95-6.73-27.35-6.74c-10.15-.02-20.3,2.43-29.75,6-20.74,7.84-38.73,21.55-53.89,37.55-7.88,8.32-15.25,17.29-21.62,26.82s-12.02,20.72-14.12,32.37c-1.99,11.03-1.1,22.41,3.38,32.74s13.12,18.05,23.34,22.73c10.82,4.95,22.63,7.84,34.19,10.49,12.13,2.78,24.41,4.83,36.77,6.26,24.22,2.8,48.75,2.94,73,.45s48.74-7.59,72.12-15.37c5.6-1.87,11.15-3.89,16.65-6.06,2.18-.86,3.95-3.05,3.14-5.54-.69-2.12-3.19-4.07-5.54-3.14-21.98,8.67-44.88,14.93-68.21,18.71-1.49.24-2.99.47-4.49.7-.67.1-1.35.2-2.02.29-.37.05-.75.11-1.12.16-.16.02-1.44.19-.6.08-2.85.38-5.71.72-8.57,1.03-5.95.64-11.91,1.11-17.89,1.43-11.8.63-23.62.64-35.42.02-5.9-.31-11.79-.77-17.66-1.39-2.94-.31-5.87-.66-8.8-1.05.73.1-.04,0-.15-.02-.45-.06-.9-.12-1.35-.19-.6-.08-1.2-.17-1.8-.26-1.57-.23-3.14-.47-4.71-.72-11.66-1.88-23.22-4.38-34.61-7.52-5.34-1.47-10.67-3.02-15.82-5.05-.23-.09-1.82-.75-1.04-.42-.64-.27-1.27-.55-1.89-.85-1.25-.58-2.48-1.2-3.68-1.87-1.14-.63-2.25-1.3-3.34-2.02-.51-.34-1.02-.69-1.52-1.05.05.04-1.03-.76-.53-.38.36.27-.56-.45-.67-.54-1.99-1.64-3.76-3.48-5.4-5.47.57.7.03.04-.1-.14-.19-.25-.37-.51-.55-.77-.33-.46-.64-.94-.94-1.41-.68-1.06-1.3-2.16-1.87-3.28-.26-.51-.5-1.02-.74-1.53,0,0-.5-1.13-.23-.5s-.21-.52-.21-.52c-.46-1.18-.88-2.38-1.24-3.6s-.65-2.34-.9-3.52c-.12-.56-.23-1.13-.34-1.7-.06-.32-.11-.63-.16-.95-.02-.13-.19-1.34-.11-.74.09.71-.06-.55-.06-.55-.03-.26-.05-.51-.08-.77-.06-.64-.11-1.28-.15-1.93-.08-1.29-.11-2.58-.09-3.87s.07-2.45.17-3.68c.05-.58.1-1.16.16-1.73.04-.32.08-.64.11-.96.04-.34.03-.26-.03.24.03-.19.06-.38.09-.57.41-2.64,1.02-5.25,1.77-7.81.39-1.32.82-2.63,1.28-3.93.22-.61.45-1.22.68-1.83.13-.34.26-.67.4-1.01.08-.2.16-.4.25-.6-.17.41-.16.36.05-.13,2.28-5.21,5.05-10.19,8.15-14.95,1.52-2.33,3.12-4.62,4.77-6.86.43-.59.87-1.18,1.31-1.76.18-.23.35-.47.53-.7-.07.09.81-1.06.45-.59s.52-.67.45-.58c.18-.23.36-.46.54-.69.52-.66,1.04-1.32,1.57-1.97,6.61-8.21,13.78-15.99,21.59-23.07,1.9-1.72,3.84-3.4,5.82-5.04.99-.81,1.98-1.62,2.99-2.41.16-.13.87-.68.2-.16.21-.16.43-.33.64-.49.64-.49,1.29-.97,1.94-1.45,4.2-3.09,8.56-5.96,13.09-8.54,2.19-1.25,4.42-2.43,6.69-3.54,1.19-.58,2.39-1.15,3.6-1.69.48-.22.97-.43,1.46-.64,1.21-.53-.83.33.39-.16.37-.15.74-.3,1.1-.45,4.81-1.92,9.75-3.49,14.8-4.66,2.25-.52,4.6-1.12,6.92-1.31-1.32.11.46-.05.78-.08.55-.06,1.11-.11,1.66-.15,1.12-.09,2.24-.15,3.36-.17,2.14-.05,4.29,0,6.43.17.56.04,1.12.1,1.68.16.33.04,2.09.12.81.09,1.08.02,2.25.36,3.31.57,2.05.42,4.08.96,6.06,1.64.51.18,1.02.36,1.53.56.2.08.4.16.6.24,1.04.4-.9-.41.11.05s1.93.89,2.87,1.4c.83.45,1.64.93,2.44,1.44.44.28.87.58,1.29.88.17.12.33.25.5.37.79.58-.62-.53.07.06.78.67,1.56,1.33,2.29,2.07.63.64,1.67,1.47,2.04,2.3-.33-.73-.35-.47-.14-.18.15.21.3.42.45.63.27.38.52.77.77,1.17.55.89,1.05,1.82,1.49,2.77.14.3.68.99.06.1.1.14.18.46.24.6.22.59.43,1.2.6,1.81.17.56.31,1.13.44,1.71.07.32.14.64.19.96.04.23.2,1.39.07.34.14,1.16.21,2.32.21,3.49,0,.65-.02,1.3-.07,1.95-.02.26-.04.52-.06.78-.03.35-.14,1.17-.02.36-.37,2.61-1.06,5.18-2.01,7.64-.1.25-.19.5-.29.74.33-.81,0,.01-.1.21-.25.55-.5,1.09-.78,1.63-.63,1.25-1.33,2.47-2.09,3.66-.32.51-.66,1.01-1,1.5-.19.27-.39.54-.59.81-.13.17-.68.86-.15.2-.85,1.06-1.74,2.09-2.68,3.07-.87.91-1.78,1.8-2.72,2.65-.52.47-1.05.93-1.59,1.38-.21.18-.43.36-.65.54-.22.18-.44.35-.66.53-.37.29-.44.35-.21.17.49-.37-.62.46-.55.41-.23.17-.45.33-.68.5-.57.41-1.15.82-1.73,1.21-1.17.79-2.36,1.55-3.57,2.28-4.74,2.86-9.74,5.27-14.8,7.52-2.89,1.29-5.14,2.24-7.68,3.28-2.83,1.16-5.68,2.29-8.54,3.38-22.9,8.7-46.72,14.97-70.93,18.67-1.47.23-2.95.44-4.43.65-.39.05-.78.11-1.17.16.2-.03.73-.1-.2.03-.78.1-1.56.2-2.34.3-2.96.37-5.93.7-8.89.99-2.34.23-4.62,1.9-4.5,4.5.1,2.24,1.99,4.75,4.5,4.5h0Z"/>
  <path class="cls-1" d="m822.99,368.67c-21.39,9.24-41.08,22.31-58.16,38.15s-31.4,34.36-42.25,54.79c-5.35,10.08-10.34,20.71-12.77,31.92s-2.64,22.79,2.94,32.7c2.9,5.15,7.4,9.42,12.64,12.13,5.72,2.96,11.97,4.28,18.32,5.01s13.04.84,19.56.92c7.16.09,14.33-.01,21.49-.31,28.7-1.2,57.33-5.46,85.12-12.73,3.39-.89,6.76-1.82,10.13-2.8,2.26-.65,3.9-3.2,3.14-5.54s-3.11-3.85-5.54-3.14c-13.46,3.9-27.12,7.1-40.91,9.55-3.45.61-6.9,1.18-10.37,1.71-3.78.57-6.16.9-9.69,1.33-6.8.83-13.61,1.49-20.44,1.98-13.98.99-28,1.23-42.01.73-2.97-.11-5.95-.25-8.91-.53-.66-.06-1.32-.13-1.97-.21-.14-.02-1.45-.2-.38-.04-.26-.04-.52-.08-.78-.12-1.55-.24-3.1-.53-4.63-.9-1.26-.3-2.5-.65-3.73-1.06-.61-.2-1.2-.44-1.81-.65-1.19-.43.81.39-.34-.14-.4-.19-.81-.37-1.21-.57-1.2-.59-2.35-1.26-3.46-2.01-.32-.22-.63-.44-.94-.66.14.1.66.54,0,0-.58-.48-1.14-.97-1.68-1.5-.5-.48-.98-.98-1.43-1.51-.22-.25-1.25-1.6-.58-.67-.72-1-1.4-2.02-1.99-3.1-.29-.54-.55-1.09-.82-1.63-.12-.24-.49-.95-.01,0-.15-.29-.25-.62-.36-.93-.43-1.15-.78-2.33-1.07-3.52-.13-.55-.25-1.1-.36-1.65-.06-.33-.12-.67-.18-1.01-.04-.25-.32-1.32-.03-.16-.3-1.19-.25-2.58-.29-3.81-.08-2.63.1-5.23.38-7.84.13-1.18-.11.67,0-.07.05-.3.09-.6.13-.9.1-.66.22-1.32.34-1.98.26-1.39.56-2.77.9-4.14.65-2.62,1.43-5.2,2.32-7.74.4-1.14.82-2.27,1.27-3.39.13-.33.26-.66.4-1,0-.02.45-1.11.18-.45s.21-.48.21-.5c.2-.47.41-.94.61-1.41,1.11-2.52,2.27-5.02,3.48-7.49,4.93-10.05,10.73-19.68,17.27-28.77.78-1.09,1.58-2.17,2.39-3.25.42-.56.85-1.12,1.28-1.68.52-.68.1-.14,0,0,.31-.4.63-.81.95-1.21,1.74-2.21,3.53-4.39,5.36-6.53,3.62-4.23,7.41-8.32,11.36-12.24s8.06-7.69,12.32-11.29c2.15-1.82,4.34-3.59,6.56-5.32-.81.63.2-.16.31-.23.2-.16.41-.31.61-.47.61-.46,1.23-.93,1.84-1.38,1.13-.84,2.27-1.67,3.42-2.48,9.13-6.48,18.8-12.21,28.89-17.07,2.48-1.2,4.99-2.34,7.51-3.43,2.17-.94,2.82-4.28,1.61-6.16-1.45-2.25-3.84-2.62-6.16-1.61h0Z"/>
  <path class="cls-1" d="m922,391.48c-.35,21.77-.71,43.55-1.06,65.32s-.71,43.55-1.06,65.32c-.2,12.3-.4,24.6-.6,36.9-.04,2.35,2.1,4.61,4.5,4.5s4.46-1.98,4.5-4.5c.35-21.77.71-43.55,1.06-65.32.35-21.77.71-43.55,1.06-65.32.2-12.3.4-24.6.6-36.9.04-2.35-2.1-4.61-4.5-4.5s-4.46,1.98-4.5,4.5h0Z"/>
  <path class="cls-1" d="m910.89,325.65c-3.83,9.37.23,20.83,7.77,27.14,4.16,3.48,9.05,5.59,14.5,5.87s10.97-1.43,15.48-4.34c9.21-5.96,14.73-16.55,13.35-27.56s-8.32-21.19-18.31-26.1c-12.25-6.02-27.11-4.68-38.66,2.36-2.01,1.22-2.95,4.09-1.61,6.16s4.01,2.92,6.16,1.61c1.03-.63,2.08-1.21,3.16-1.74.3-.15.6-.29.91-.43.2-.09,1.02-.44.22-.11.62-.26,1.25-.5,1.88-.72,1.14-.4,2.3-.75,3.47-1.04.52-.13,1.04-.25,1.57-.36.33-.07.66-.13.99-.19.13-.02,1.35-.22.79-.14-.68.1.62-.07.6-.07.27-.03.53-.05.8-.08.6-.05,1.2-.09,1.8-.11,1.27-.04,2.53-.02,3.79.07.27.02.53.04.79.07-.02,0,1.28.14.59.06s.6.1.58.09c.26.04.52.09.78.14,1.3.25,2.59.58,3.85.99.51.16,1.01.34,1.5.53-.03-.01,1.17.49.57.22s.59.28.56.26c1,.48,1.98,1.01,2.91,1.6.51.32,1.01.66,1.5,1.01.2.14.39.29.58.43-.73-.56-.21-.16-.06-.03.91.8,1.81,1.58,2.65,2.46.37.39.74.8,1.09,1.21.18.21,1.13,1.48.54.64.66.94,1.32,1.87,1.9,2.86.55.94,1,1.91,1.49,2.88.32.64-.37-1,.04.08.08.22.17.45.26.67.21.56.4,1.13.57,1.7.31,1.03.56,2.07.74,3.13.04.23.08.47.11.7-.17-1.05-.03-.23,0,.04.06.65.11,1.3.12,1.96.02,1.08-.04,2.14-.14,3.21-.02.24-.18.83.02-.13-.05.23-.08.47-.12.71-.12.64-.27,1.27-.44,1.89-.14.51-.31,1.01-.48,1.51-.08.22-.17.44-.25.66.3-.88.14-.31.04-.1-.5,1.07-1.04,2.11-1.68,3.1-.29.45-.61.87-.9,1.31-.39.59.68-.8-.05.07-.15.18-.3.36-.45.54-.77.9-1.6,1.74-2.48,2.52-.35.31-.72.61-1.08.91.82-.68-.43.29-.65.44-.92.62-1.88,1.19-2.88,1.68-.26.13-.53.24-.79.37-.63.32,1.01-.36-.05.02-.44.16-.87.33-1.31.47-.3.1-3.29,1.01-3.38.8,0-.01,1.14-.11.16-.03-.23.02-.46.04-.69.06-.58.04-1.16.06-1.74.05-.47,0-.93-.03-1.4-.07-.06,0-1.17-.2-.45-.04.67.14-.42-.09-.55-.12-.95-.2-1.84-.61-2.78-.82-.63-.15.97.48.04.02-.19-.09-.39-.18-.58-.28-.48-.24-.95-.5-1.41-.77s-.9-.59-1.34-.89c-.88-.58.5.47.01.02-.24-.22-.5-.41-.74-.62-.85-.75-1.65-1.56-2.38-2.43-.12-.14-.31-.33-.41-.5.55.96.09.1-.07-.13-.34-.49-.67-.98-.97-1.49-.27-.46-.53-.94-.77-1.42-.12-.24-.23-.49-.35-.73-.41-.83.29.83-.05-.11-.36-1.01-.7-2.01-.93-3.06-.06-.26-.1-.52-.15-.78-.22-1.03-.01.33-.02-.06-.01-.58-.1-1.15-.11-1.73,0-.53,0-1.05.04-1.58,0-.11,0-.58.06-.63-.09.62-.11.76-.06.41.02-.16.05-.31.08-.47.21-1.16.56-2.28,1.01-3.37.89-2.18-.97-5.04-3.14-5.54-2.62-.6-4.58.8-5.54,3.14h0Z"/>
  <path class="cls-1" d="m1026.95,372.45c18.91,30.09,31.94,63.57,38.85,98.42,6.88,34.68,7.63,70.79,1.85,105.69s-16.86,65.27-33.6,94.51-36.6,53.19-60.66,74.64-51.27,38.83-80.78,51.17c-3.71,1.55-7.45,3.01-11.23,4.4-2.28.84-3.83,3.05-3.14,5.54.6,2.19,3.24,3.99,5.54,3.14,31.36-11.57,60.46-28.46,86.31-49.63s47.9-46.28,65.53-74.38,31.35-61.16,38.39-94.67c7.53-35.84,8.33-72.84,2.87-109.02-5.43-35.93-17.31-70.98-35.18-102.64-2.23-3.96-4.57-7.86-6.98-11.71-3.07-4.89-10.86-.38-7.77,4.54h0Z"/>
  <path class="cls-1" d="m985.79,437.41c.11-.89.02-.17,0,0,.04-.26.08-.53.12-.79.07-.46.15-.92.23-1.38.17-.98.36-1.96.58-2.93.44-2,.96-3.99,1.57-5.95s1.25-3.77,1.98-5.61c.17-.43.35-.86.52-1.29-.36.87.26-.58.33-.75.4-.91.83-1.81,1.26-2.7,1.78-3.65,3.83-7.17,6.09-10.55,1.12-1.67,2.29-3.3,3.5-4.9.09-.12.53-.67.03-.04.12-.16.25-.32.37-.47.29-.37.58-.73.88-1.1.68-.83,1.37-1.66,2.07-2.47,2.67-3.09,5.52-6.03,8.52-8.81,1.54-1.43,3.12-2.82,4.73-4.16.84-.71,1.7-1.4,2.56-2.08.17-.14.34-.27.52-.41.08-.06.79-.62.41-.32-.34.26.23-.18.24-.18.29-.22.58-.44.88-.66,7.09-5.34,14.67-10.01,22.46-14.24s15.89-8.06,24.02-11.69c2.17-.97,4.34-1.92,6.52-2.86.21-.09.43-.18.64-.27.08-.03.96-.41.53-.23-.37.16.33-.14.32-.13.29-.12.57-.24.86-.36,1.14-.47,2.29-.94,3.43-1.4,4.3-1.71,8.65-3.31,13.07-4.68s9-2.56,13.61-3.41c1.13-.21,2.26-.39,3.4-.56.01,0,.76-.11.31-.05-.5.07.44-.06.54-.07.61-.08,1.22-.14,1.83-.21,2.14-.22,4.29-.36,6.44-.4,1.93-.04,3.86,0,5.79.13.9.06,1.8.13,2.7.22.51.05,1.03.11,1.54.17.08,0,.72.1.17.02-.63-.09.43.07.55.08,3.8.58,7.56,1.49,11.19,2.76.9.31,1.79.67,2.68,1.01.64.24-.64-.29-.02-.01.17.08.35.15.52.23.52.23,1.04.47,1.55.72,1.71.82,3.37,1.73,4.97,2.74.8.5,1.59,1.03,2.36,1.58.36.26.71.52,1.07.78.41.3-.12-.09-.16-.13.24.2.49.39.74.59,1.51,1.25,2.95,2.6,4.28,4.04.57.62,1.13,1.26,1.67,1.91.15.18.29.36.44.55.06.07.41.54.08.1-.36-.48.09.13.17.24.17.23.34.47.51.71.99,1.41,1.9,2.88,2.71,4.4.38.7.74,1.42,1.07,2.14.19.41.38.83.56,1.25-.4-.91.06.17.19.51.61,1.59,1.14,3.22,1.57,4.87s.81,3.45,1.08,5.21c0,.03.08.51.08.51-.02,0-.11-.91-.02-.17.04.4.09.8.13,1.2.09.92.16,1.84.21,2.77.18,3.58-.02,7.15-.45,10.71.11-.92,0-.03-.06.39s-.13.82-.2,1.23c-.16.94-.35,1.88-.55,2.81-.38,1.76-.83,3.5-1.35,5.22s-1.11,3.44-1.75,5.13c-.17.45-.35.9-.53,1.35-.07.17-.14.33-.21.5-.25.62.3-.68.03-.07-.4.88-.79,1.77-1.21,2.64-1.57,3.26-3.38,6.4-5.42,9.38-.51.74-1.03,1.47-1.56,2.19-.11.14-.21.29-.32.43-.08.11-.55.72-.19.26.34-.43-.04.04-.09.11-.22.28-.45.56-.67.83-1.21,1.48-2.49,2.9-3.8,4.29-2.77,2.92-5.74,5.65-8.85,8.2-.41.34-.83.68-1.25,1.01-.16.12-.31.25-.47.37-.09.07-.76.59-.34.26.39-.3-.14.11-.18.14-.21.16-.43.32-.64.48-.43.32-.86.64-1.29.95-1.68,1.22-3.4,2.4-5.14,3.53-6.87,4.48-14.15,8.3-21.58,11.73-1.86.86-3.73,1.7-5.61,2.51-.88.38-1.76.76-2.64,1.13.74-.31.08-.03-.06.02-.25.11-.51.21-.76.32-.51.21-1.01.42-1.52.63-3.86,1.59-7.74,3.11-11.63,4.6-18.28,7.04-36.63,13.92-54.94,20.87s-37.56,14.26-56.34,21.39c-4.58,1.74-9.16,3.48-13.74,5.22-2.19.83-3.94,3.07-3.14,5.54.69,2.14,3.18,4.04,5.54,3.14,19.32-7.34,38.65-14.67,57.97-22.01,19.32-7.34,38.65-14.67,57.97-22.01,16.18-6.14,32.52-12.24,47.6-20.81s28.14-18.98,37.04-33.22c8.06-12.89,12.63-28.77,11.17-44.01-.73-7.63-2.84-15.09-6.75-21.73-4.12-7-10.1-12.81-17.05-16.99-15.06-9.05-33.34-10.31-50.29-7.2-9.47,1.74-18.63,4.84-27.53,8.43-8.86,3.57-17.6,7.49-26.2,11.66-16.43,7.97-32.42,17.4-45.76,30-12.39,11.69-22.48,26.32-27.37,42.75-1.24,4.15-2.03,8.38-2.58,12.67-.3,2.34,2.28,4.6,4.5,4.5,2.69-.12,4.18-1.99,4.5-4.5h0Z"/>
  <path class="cls-1" d="m1221.92,460.61c20.02,2.5,40.35,1.77,60.19-1.88,9.79-1.8,19.44-4.34,28.83-7.61s18.61-7.1,27.25-11.93,16.1-10.62,21.43-18.61c5.21-7.81,7.59-17.61,5.85-26.88s-7.99-16.07-15.74-20.42-17.06-6.42-26.05-7.59c-19.89-2.61-40.5.37-58,10.47-8.31,4.8-15.84,10.95-22.78,17.55s-13.21,13.33-19.33,20.4-11.92,14.6-15.69,23.18-5.49,18.32-3.89,27.98c2.89,17.47,15.87,32.45,31.01,40.88,17.42,9.69,37.67,12.32,57.28,13.29s40.78.1,60.22-5.71c4.9-1.46,9.67-3.28,14.33-5.35,2.16-.96,2.83-4.27,1.61-6.16-1.44-2.23-3.85-2.64-6.16-1.61-.55.24-1.1.49-1.65.72.68-.29-.88.36-1,.41-1.11.45-2.23.87-3.36,1.28-2.25.81-4.52,1.56-6.82,2.23-4.59,1.34-9.27,2.41-13.98,3.23-1.18.21-2.37.4-3.55.58-.52.08-1.04.15-1.56.23-.76.11.62-.08-.14.02-.37.05-.75.1-1.12.14-2.39.29-4.79.53-7.19.73-4.82.38-9.65.57-14.48.61-9.51.07-19.06-.35-28.53-1.33-1.09-.11-2.18-.23-3.27-.37-.29-.04-.58-.07-.87-.11-.11-.01-1.02-.13-.49-.06s-.38-.05-.49-.07c-.36-.05-.72-.1-1.09-.16-2.31-.34-4.61-.73-6.9-1.18-4.55-.9-9.06-2.05-13.46-3.52-1.03-.34-2.05-.71-3.06-1.09-.54-.2-1.08-.41-1.61-.62-.2-.08-.4-.16-.6-.24-.03-.01-1.3-.56-.52-.22-2.12-.93-4.2-1.92-6.24-3.02-1.9-1.02-3.75-2.13-5.53-3.34-.79-.53-1.57-1.09-2.33-1.65-.1-.08-.75-.56-.31-.23s-.2-.16-.3-.24c-.45-.36-.9-.72-1.34-1.09-3.14-2.63-5.97-5.57-8.54-8.76-.11-.14-.52-.68,0,0-.11-.15-.23-.3-.34-.46-.3-.41-.6-.82-.9-1.23-.62-.88-1.22-1.77-1.79-2.69-1.06-1.71-2.03-3.47-2.89-5.29-.19-.4-.37-.79-.55-1.19-.06-.13-.36-.86-.14-.32s-.08-.2-.13-.33c-.39-.98-.75-1.98-1.07-2.98-.6-1.89-1.08-3.82-1.42-5.77-.03-.19-.24-1.44-.15-.87.1.61-.02-.17-.04-.32-.03-.25-.05-.49-.08-.74-.1-1.05-.16-2.11-.18-3.16-.02-.94,0-1.88.05-2.81.02-.44.05-.88.09-1.32.02-.27.05-.55.08-.82,0,.02.16-1.2.07-.62s.05-.28.07-.41c.04-.27.09-.54.14-.8.1-.53.21-1.06.32-1.59.23-1.05.51-2.1.82-3.13s.65-2.05,1.03-3.06c.17-.44.34-.88.51-1.32.32-.81.09-.21.02-.05.13-.31.27-.62.41-.93,1.81-4,4.08-7.77,6.59-11.37.6-.85,1.21-1.7,1.83-2.53.33-.45.67-.89,1.01-1.33-.46.59-.02.02.07-.08.22-.27.43-.55.65-.82,1.4-1.75,2.83-3.46,4.3-5.14,2.94-3.38,5.97-6.67,9.04-9.93,6.21-6.6,12.66-13.01,19.78-18.64.16-.13,1.17-.91.59-.46.45-.34.9-.68,1.35-1.01.96-.71,1.93-1.41,2.91-2.08,1.85-1.27,3.74-2.48,5.67-3.62s3.92-2.2,5.94-3.17c.96-.46,1.94-.91,2.92-1.33-.64.28.05-.02.15-.06.27-.11.55-.22.82-.33.62-.24,1.24-.48,1.86-.71,4.43-1.62,9-2.82,13.64-3.65,1.09-.19,2.18-.37,3.28-.52-.8.11.82-.1,1-.12.66-.08,1.32-.14,1.98-.2,2.36-.22,4.72-.34,7.09-.38,4.67-.08,9.35.18,13.99.74.29.04.59.07.88.11-.76-.09,0,0,.13.02.59.08,1.17.17,1.76.26,1.17.18,2.34.39,3.5.61,1.95.37,3.9.81,5.82,1.33s3.8,1.11,5.66,1.82c.46.17.92.36,1.38.54-.98-.39.42.19.62.28.89.41,1.76.84,2.62,1.31s1.68.95,2.49,1.48c.4.26.8.53,1.19.81.26.19,1.25.98.52.37,1.46,1.23,2.81,2.51,4.05,3.97.54.62.05.05-.04-.07.14.19.28.38.42.58.28.39.54.79.79,1.19.53.85.99,1.73,1.41,2.63.37.78.06.14,0-.02.09.24.18.47.27.71.17.48.33.96.47,1.45.28.98.49,1.97.65,2.97.15.86,0,.1,0-.07.02.25.05.5.07.76.04.51.07,1.02.08,1.52.03,1.02,0,2.05-.08,3.07-.02.27-.2,1.72-.05.72-.07.51-.16,1.02-.26,1.53-.2,1.02-.44,2.03-.74,3.03s-.65,1.98-1.02,2.96c-.06.16-.34.79,0,.01-.08.18-.16.36-.24.54-.24.54-.5,1.07-.77,1.59-.95,1.86-2.07,3.62-3.33,5.29.46-.62.04-.05-.05.06-.17.21-.34.42-.52.63-.35.42-.71.83-1.07,1.23-.73.81-1.48,1.59-2.27,2.35s-1.59,1.49-2.42,2.19c-.36.31-.73.61-1.1.91-.21.17-.43.34-.64.51-.39.31.43-.32-.23.17-3.55,2.61-7.3,4.9-11.21,6.95-1.96,1.03-3.95,2-5.96,2.93-1.09.5-2.18,1-3.27,1.48-.48.21-.96.42-1.44.63-.27.12-.55.24-.82.35-.29.12-.28.12.04-.02l-.41.17c-8.85,3.67-17.95,6.7-27.24,9.03-4.64,1.17-9.33,2.16-14.05,2.98-2.36.41-4.72.78-7.1,1.1.83-.11-.88.11-1.03.13-.52.06-1.04.13-1.56.19-1.26.15-2.53.28-3.79.4-9.53.92-19.13,1.14-28.69.65-4.63-.24-9.25-.66-13.86-1.23-2.35-.29-4.6,2.28-4.5,4.5.12,2.69,1.99,4.19,4.5,4.5h0Z"/>
  <path class="cls-1" d="m1967.45,105.02c-24.48-15.32-52.33-24.36-80.94-27.68-28.6-3.32-57.93-.72-85.65,6.97-27.41,7.6-53.17,20.38-76.04,37.26-22.49,16.59-42.08,36.66-58.7,59.11s-29.99,47.16-40.26,73.1-17.3,53.2-19.44,81.08c-2.08,27.1.59,55.26,11.09,80.52,5.29,12.72,12.34,24.51,21.33,34.97,9.65,11.22,21.4,20.57,34.01,28.24,26.37,16.04,56.78,25.5,86.75,32.1,33.38,7.35,67.72,10.53,101.88,9.32,8.19-.29,16.36-.84,24.52-1.63,2.42-.23,4.5-1.9,4.5-4.5,0-2.25-2.07-4.74-4.5-4.5-32.96,3.18-66.36,2.36-99.1-2.7-16.44-2.54-32.73-6.11-48.72-10.68-13.99-4-27.85-8.69-41.08-14.77-25.25-11.6-48.26-28.31-62.82-52.39-13.54-22.39-19.13-48.62-19.49-74.58s4.61-53.9,13.02-79.52c8.4-25.57,19.98-50.09,34.51-72.75,14.46-22.54,31.92-43.15,52.17-60.71,20.38-17.68,43.73-32.22,68.98-41.81,26.06-9.89,53.9-14.92,81.78-14.5,27.45.41,55.03,6.18,79.86,18.05,6.11,2.92,12.04,6.19,17.79,9.79,4.92,3.08,9.45-4.7,4.54-7.77h0Z"/>
  <path class="cls-1" d="m2070.76,403.11c-23.18-3.9-47.37-6.08-70.41-.18-10.34,2.65-20.38,6.94-28.93,13.38-8.14,6.13-15.18,13.69-20.3,22.53s-8.03,18.13-8.32,27.99c-.15,4.93.46,9.96,1.79,14.71.84,2.99,2.06,5.81,4.1,8.17s4.88,3.68,7.75,4.44,5.94,1.02,8.91,1.36,5.7.56,8.56.69c6,.26,12.03-.05,17.93-1.18,11.02-2.11,20.66-7.9,28.35-15.97s13.31-17.41,18.84-26.81c6.45-10.96,12.55-22.12,18.29-33.47,1.38-2.73,2.74-5.47,4.08-8.22l-8.39-2.27c2.38,18.11,4.87,36.48,12.79,53.15,7.17,15.09,19.52,27.66,35.45,33.29,8.5,3.01,17.94,3.52,26.6.9,2.25-.68,3.9-3.18,3.14-5.54s-3.12-3.87-5.54-3.14c-1.76.53-3.54.92-5.35,1.2.91-.14-.02,0-.42.03s-.84.07-1.26.1c-.96.06-1.92.08-2.88.06-.84-.01-1.68-.06-2.51-.13-.42-.04-.84-.09-1.25-.13-.53-.05.26.04.3.05-.3-.04-.59-.09-.89-.13-1.79-.29-3.56-.7-5.3-1.22-.82-.24-1.63-.51-2.43-.8-.4-.14-.8-.29-1.2-.45-.32-.12-1.48-.63-.63-.25-1.69-.77-3.36-1.57-4.97-2.49s-3.21-1.94-4.73-3.03c-.36-.25-.71-.51-1.06-.78-.15-.11-.3-.23-.45-.34.7.52.16.12.02,0-.73-.59-1.46-1.19-2.17-1.81-2.79-2.45-5.33-5.16-7.64-8.07.62.78-.31-.42-.43-.58-.26-.35-.51-.71-.76-1.06-.54-.78-1.07-1.57-1.57-2.38-1.14-1.81-2.19-3.68-3.17-5.58-.45-.88-.89-1.78-1.31-2.68-.21-.45-.42-.9-.62-1.36-.12-.26-.23-.52-.34-.78-.03-.07-.36-.84-.19-.44.2.47-.14-.34-.18-.45-.08-.2-.16-.39-.24-.59-.21-.53-.42-1.06-.62-1.59-.38-1-.74-2-1.08-3.01-1.37-3.99-2.49-8.07-3.45-12.18-1.1-4.71-1.97-9.47-2.73-14.24-.37-2.36-.72-4.72-1.05-7.08-.08-.57-.16-1.14-.24-1.72-.04-.29-.08-.57-.12-.86-.05-.35-.08-.57-.01-.09-.17-1.28-.34-2.56-.51-3.85-.25-1.92-1.21-3.86-3.3-4.34-1.85-.42-4.19.24-5.08,2.07-5.32,10.92-10.97,21.69-16.94,32.27-5.33,9.46-10.7,19.06-17.22,27.76-.16.21-.32.42-.48.63-.77,1.02.34-.41-.14.19-.37.46-.74.93-1.11,1.39-.83,1.02-1.68,2.01-2.56,2.99-1.61,1.79-3.31,3.5-5.12,5.09-.44.39-.88.77-1.33,1.14-.2.17-.4.33-.6.49.02-.02-.98.76-.46.37s-.49.36-.47.35c-.21.15-.42.3-.63.45-.53.37-1.06.74-1.6,1.09-2.12,1.38-4.35,2.61-6.68,3.58.71-.3-.15.05-.33.12-.34.13-.67.26-1.01.38-.54.2-1.09.38-1.64.55-1.37.44-2.76.81-4.16,1.13-1.27.28-2.54.51-3.82.72-.9.14-.28.05-.09.02-.36.05-.72.09-1.08.13-.79.09-1.59.16-2.38.22-5.48.42-10.99.19-16.45-.36-1.31-.13-2.62-.28-3.93-.44-.36-.05-.72-.09-1.08-.14.17.02.85.12,0,0-.65-.1-1.29-.19-1.94-.32s-1.28-.27-1.91-.45c-.25-.07-.5-.15-.74-.23,0,0-1.15-.47-.54-.19s-.5-.27-.49-.27c-.22-.12-.43-.26-.65-.39-.7-.43-.15-.11,0,.02-.29-.26-.56-.54-.84-.82-.81-.79.17.41-.13-.17-.15-.28-.36-.55-.51-.83-.15-.26-.73-1.53-.39-.71-.49-1.19-.84-2.44-1.15-3.68-.26-1.04-.49-2.09-.68-3.15-.04-.23-.08-.47-.12-.7,0-.04-.19-1.2-.08-.46s-.05-.41-.05-.46c-.04-.35-.07-.7-.11-1.05-.2-2.22-.23-4.45-.11-6.67.06-1.05.16-2.1.28-3.14.06-.55-.17-.24-.02.15-.04-.11.08-.55.1-.69.1-.64.21-1.27.34-1.9.42-2.13.98-4.24,1.66-6.31.33-1.01.69-2.02,1.08-3.01.13-.33.27-.66.4-.99-.06.14-.37.86-.04.09.24-.55.48-1.09.74-1.63,1.96-4.16,4.39-8.06,7.14-11.74.11-.15.53-.66-.03.04.15-.19.3-.38.46-.57.38-.48.77-.95,1.17-1.42.79-.94,1.61-1.85,2.44-2.74,1.55-1.66,3.18-3.24,4.89-4.75.83-.73,1.67-1.45,2.53-2.14.24-.19.48-.38.72-.57-.13.1-.71.53-.04.03.49-.37.98-.74,1.48-1.09,1.88-1.36,3.83-2.62,5.84-3.79s4.09-2.23,6.22-3.19c.27-.12.54-.24.8-.36,1.28-.58-.43.17.34-.15.61-.25,1.21-.5,1.83-.74,1.35-.53,2.72-1.02,4.1-1.48,5.16-1.72,10.46-2.98,15.83-3.83.65-.1,1.29-.2,1.94-.29.91-.13.29-.04.1-.02.36-.05.72-.09,1.08-.14,1.37-.17,2.75-.31,4.13-.43,2.77-.24,5.55-.39,8.33-.46,5.61-.14,11.22.04,16.81.45,2.73.2,5.46.46,8.19.76,1.4.16,2.8.32,4.19.5.29.04.59.08.88.11.92.12.32.04.12.02.81.11,1.61.22,2.42.34,2.7.39,5.39.82,8.07,1.27,2.31.39,4.96-.61,5.54-3.14.5-2.18-.66-5.12-3.14-5.54h0Z"/>
  <path class="cls-1" d="m2189.92,345.27c-7.38,13.66-13.62,27.94-18.67,42.62s-8.78,29.47-11.31,44.62-3.93,30.86-3.95,46.4c0,7.27.19,14.85,3.59,21.46,3.66,7.12,10.95,10.54,18.21,12.91,15.02,4.9,31.52,5.34,46.82,1.45,1.89-.48,3.76-1.04,5.62-1.65,2.23-.74,3.92-3.14,3.14-5.54-.72-2.22-3.14-3.94-5.54-3.14-3.56,1.19-7.2,2.13-10.9,2.8-.89.16-1.78.3-2.67.44-1.46.23.88-.09-.59.08-.45.05-.89.11-1.34.16-1.94.21-3.89.35-5.84.41-3.6.12-7.21,0-10.8-.35-.45-.04-.9-.09-1.34-.15-.04,0-1.51-.19-.59-.07-.89-.12-1.78-.26-2.67-.42-1.92-.33-3.83-.74-5.73-1.22-1.75-.44-3.48-.94-5.19-1.5-.84-.28-1.68-.56-2.52-.87-.38-.14-.77-.29-1.15-.43-.26-.1-.51-.2-.76-.31.44.19.42.18-.06-.03-1.48-.69-2.94-1.43-4.29-2.36-.08-.06-1.12-.87-.39-.27-.31-.26-.62-.52-.92-.8-.58-.54-1.12-1.12-1.61-1.75.63.81-.11-.21-.19-.32-.21-.32-.4-.64-.59-.97s-.36-.66-.53-1c-.07-.14-.54-1.29-.16-.31-.61-1.56-1.06-3.16-1.37-4.81-.07-.38-.13-.77-.2-1.16-.23-1.28.08.94-.05-.36-.08-.79-.16-1.57-.22-2.36-.12-1.7-.16-3.4-.18-5.11-.07-7.34.18-14.69.71-22.01.27-3.74.62-7.47,1.04-11.19.2-1.79.42-3.57.66-5.35-.12.93.08-.54.08-.59.04-.3.08-.59.13-.89.15-1.04.3-2.08.46-3.11,2.27-14.66,5.71-29.15,10.28-43.26,1.29-3.99,2.68-7.96,4.15-11.89.68-1.82,1.39-3.64,2.11-5.45.39-.97.78-1.95,1.18-2.92.17-.42.34-.83.52-1.25.21-.5.23-.55.07-.17.12-.28.23-.55.35-.83,3.3-7.72,6.96-15.28,10.95-22.66,1.12-2.07.58-5-1.61-6.16s-4.96-.6-6.16,1.61h0Z"/>
  <path class="cls-1" d="m2140.23,425.98h81.86c2.35,0,4.61-2.07,4.5-4.5s-1.98-4.5-4.5-4.5h-81.86c-2.35,0-4.61,2.07-4.5,4.5s1.98,4.5,4.5,4.5h0Z"/>
  <path class="cls-1" d="m2360.55,431.8c-11.69-1.68-23.14-4.69-34.79-6.61-11.1-1.83-22.26-2.62-33.41-.73-10.28,1.74-20.2,6.15-27.7,13.49-6.98,6.83-11.92,16-13.68,25.61-1.83,10-.44,20.03,3.99,29.17,4.16,8.59,11.08,16.03,19.38,20.75,17.21,9.78,39.61,7.03,55.35-4.41,16.61-12.07,25.26-32.42,25.41-52.65.02-2.35-.09-4.7-.31-7.04s-1.91-4.62-4.5-4.5-4.36,1.98-4.5,4.5c-1.46,26.21.92,52.65,6.95,78.2,1.7,7.21,3.71,14.35,6,21.4.73,2.23,3.15,3.92,5.54,3.14,2.23-.72,3.92-3.14,3.14-5.54-4-12.3-7.12-24.87-9.31-37.62-1.14-6.65-1.83-11.77-2.49-18.49s-1.02-12.89-1.18-19.35c-.18-7.25-.06-14.51.34-21.75h-9c.43,4.56.41,9.15-.06,13.7-.03.33-.07.65-.11.98-.02.14-.12.96-.04.38s-.04.24-.06.37c-.05.32-.1.65-.15.97-.19,1.16-.41,2.32-.66,3.47-.48,2.23-1.08,4.44-1.8,6.61-.35,1.05-.72,2.09-1.12,3.13-.19.49-.38.97-.58,1.45.33-.8.06-.16,0,0-.16.36-.32.71-.48,1.07-.95,2.06-2.01,4.07-3.19,6.01-.57.94-1.17,1.86-1.79,2.77-.29.43-.59.85-.9,1.27-.15.21-.31.42-.46.62-.62.84.36-.43-.25.32-1.48,1.82-3.03,3.56-4.72,5.18-.72.69-1.46,1.37-2.23,2.02-.38.32-.77.64-1.16.96-.93.77.47-.33-.13.1-.25.18-.5.38-.76.56-1.83,1.33-3.74,2.53-5.73,3.61-.88.48-1.78.93-2.69,1.36-.23.11-.46.21-.68.31,0,0-1.13.5-.5.23.53-.23-.21.08-.33.13-.35.14-.7.28-1.05.41-2.05.78-4.15,1.42-6.28,1.94-1.03.25-2.07.46-3.12.64-.49.09-.99.16-1.48.23-.75.12,1.1-.11-.1,0-.31.03-.62.07-.93.1-2.16.21-4.34.27-6.51.18-1.05-.04-2.1-.12-3.15-.24-.15-.02-.94-.11-.32-.03.72.09-.48-.08-.5-.08-.55-.09-1.1-.19-1.64-.29-2.13-.42-4.23-1.01-6.27-1.75-.23-.09-.47-.17-.7-.26,0,0-1.14-.46-.5-.2.53.22-.19-.09-.31-.14-.22-.1-.45-.2-.67-.31-1.05-.5-2.09-1.04-3.1-1.62-.85-.49-1.68-1.01-2.49-1.56-.46-.31-.91-.63-1.35-.96-.11-.08-.73-.55-.28-.2.49.37-.32-.26-.41-.33-1.71-1.39-3.32-2.92-4.81-4.55-.66-.73-1.29-1.48-1.91-2.24-.75-.92.34.49-.08-.11-.14-.2-.29-.39-.44-.59-.36-.5-.71-1-1.05-1.51-1.19-1.79-2.25-3.66-3.17-5.6-.21-.44-.41-.89-.61-1.34.43.95-.21-.55-.31-.8-.39-1.03-.74-2.08-1.05-3.14-.29-1-.55-2.01-.77-3.03-.1-.48-.2-.96-.28-1.44-.04-.24-.08-.48-.12-.73-.19-1.06.07.72-.04-.26-.25-2.24-.34-4.49-.24-6.75.05-1,.14-2,.25-3,.1-.87.02-.09-.01.08.04-.25.08-.5.12-.74.1-.62.22-1.24.35-1.85.47-2.21,1.11-4.39,1.9-6.51.18-.47.36-.94.56-1.4-.37.9.19-.4.31-.65.48-1.03,1-2.03,1.55-3.02s1.15-1.95,1.77-2.9c.28-.42.56-.83.86-1.24.15-.2.3-.41.44-.61.74-1.01-.57.69.22-.28,1.39-1.71,2.87-3.33,4.49-4.82.79-.72,1.6-1.41,2.44-2.07-.72.57.35-.25.6-.43.53-.38,1.08-.74,1.63-1.1,2.03-1.3,4.16-2.38,6.35-3.39.72-.33-.97.37.25-.1.26-.1.51-.2.76-.3.51-.2,1.03-.38,1.54-.56,1.17-.4,2.35-.77,3.54-1.09,2.4-.65,4.84-1.13,7.3-1.49-.94.14.66-.08.87-.1.55-.06,1.11-.12,1.66-.17,1.25-.11,2.5-.19,3.76-.24,5.02-.2,10.05.08,15.03.67.32.04.63.08.95.12.09.01,1.06.14.59.08-.59-.08.96.14.82.12.32.05.63.09.95.14,1.42.21,2.83.45,4.25.69,2.75.48,5.49,1.02,8.22,1.57,5.47,1.11,10.93,2.32,16.42,3.34,2.74.51,5.5.98,8.26,1.37,2.32.33,4.95-.57,5.54-3.14.48-2.13-.65-5.18-3.14-5.54h0Z"/>
  <path class="cls-1" d="m2462.3,98.67c-8.73,33.91-16.39,68.1-22.95,102.5-6.58,34.53-12.04,69.27-16.41,104.14-4.35,34.61-7.71,69.4-9.71,104.23-.97,16.9-1.43,33.88-.16,50.79.65,8.58,1.73,17.15,3.38,25.6,1.5,7.69,3.31,15.58,6.29,22.85,2.78,6.79,7.16,13.14,14.6,15.21s15.59-.03,22.51-2.47c13.36-4.7,24.95-13.43,33.23-24.9,1.97-2.73,3.69-5.61,5.19-8.62,1.09-2.17.58-4.87-1.61-6.16-1.99-1.17-5.07-.57-6.16,1.61-5.76,11.54-15.1,20.8-26.6,26.62-5.5,2.79-11.73,4.91-17.89,5.53-3.22.33-6.58.2-9.29-1.75-2.31-1.66-3.81-4.31-4.99-6.84-3.08-6.56-4.64-14.14-6.12-21.2-1.63-7.77-2.71-15.64-3.37-23.55-1.36-16.36-1.06-32.82-.19-49.2,1.77-33.58,4.97-67.12,9.01-100.5,4.06-33.56,9.19-66.98,15.34-100.22s13.31-66.28,21.5-99.07c1.02-4.08,2.05-8.16,3.1-12.24,1.45-5.61-7.23-8.01-8.68-2.39h0Z"/>
  <path class="cls-1" d="m2621.44,433.1c-15.37-5.71-31.81-11.17-48.44-9.67-14.06,1.27-27.02,7.61-36.61,18.01-9.23,10.01-14.92,22.88-15.69,36.5-.78,13.73,3.48,27.84,11.31,39.1,8.15,11.73,19.87,20.35,33.56,24.48s28.39,3.54,41.45-2.08c11.92-5.14,21.71-15.17,27.07-26.94,5.65-12.43,6.81-26.58,1.77-39.43-5.54-14.12-16.07-25.92-28.27-34.72-11.28-8.14-24.65-13.7-38.41-15.83-3.56-.55-7.14-.93-10.75-1.07-2.35-.09-4.61,2.13-4.5,4.5.11,2.51,1.98,4.4,4.5,4.5,1.63.06,3.26.17,4.89.32.78.08,1.56.17,2.34.26.53.06-.17-.03-.23-.03.19.03.39.05.58.08.45.07.9.13,1.35.21,3.22.52,6.41,1.23,9.55,2.12s6.22,1.97,9.25,3.2c.8.33-.43-.19.37.15.36.16.72.31,1.08.47.78.35,1.55.7,2.31,1.07,1.47.71,2.92,1.46,4.35,2.25,2.86,1.58,5.63,3.32,8.29,5.22.64.45,1.27.92,1.9,1.39.22.17.93.72.33.25.36.28.72.57,1.07.85,1.27,1.03,2.51,2.09,3.72,3.18,2.46,2.24,4.8,4.62,6.97,7.14.51.59,1.02,1.19,1.51,1.8.25.3.49.61.74.92.13.16.26.33.39.49-.29-.38-.07-.09.09.12,1.08,1.45,2.12,2.92,3.1,4.44s1.89,3.08,2.73,4.67c.4.76.79,1.54,1.16,2.32.18.39.36.78.54,1.18.01.02.29.68.11.26-.16-.39.16.39.18.46,1.23,3.09,2.16,6.3,2.67,9.58.01.09.12.44.08.52,0,0-.1-.87-.04-.33.04.35.08.7.12,1.05.07.76.13,1.51.16,2.27.07,1.46.06,2.92-.02,4.38-.04.7-.09,1.4-.16,2.1-.04.35-.08.7-.12,1.05-.06.54.05-.32.05-.33.06.13-.08.55-.1.69-.23,1.45-.52,2.88-.88,4.3s-.78,2.83-1.27,4.22c-.23.67-.48,1.33-.74,1.98-.15.37-.41.95-.09.23-.17.38-.33.76-.5,1.13-1.23,2.68-2.69,5.26-4.36,7.7-.4.59-.81,1.16-1.24,1.73-.11.14-.21.28-.32.42.03-.04.48-.6.16-.21-.26.32-.52.65-.78.96-.94,1.14-1.94,2.23-2.98,3.28s-2.12,2.05-3.25,3.01c-.27.23-.54.45-.82.68-.29.24-.83.64-.2.17-.62.46-1.23.91-1.86,1.35-2.51,1.72-5.17,3.14-7.94,4.38-.47.21.14-.06.2-.08-.18.07-.35.14-.53.21-.35.14-.71.28-1.06.41-.77.29-1.55.55-2.33.8-1.5.48-3.03.88-4.57,1.22-.74.16-1.48.31-2.23.44-.37.06-.75.13-1.12.18-.19.03-.38.05-.56.08.39-.06.57-.07.07-.01-1.57.18-3.15.31-4.73.36s-3.17.04-4.75-.04c-.76-.04-1.52-.09-2.28-.16-.38-.03-.76-.07-1.14-.11-.19-.02-.38-.04-.57-.06-.1-.01-.92-.12-.35-.04.53.07-.55-.08-.72-.11-.38-.06-.75-.12-1.13-.19-.88-.16-1.75-.33-2.62-.52-1.55-.35-3.1-.76-4.62-1.23s-3.03-1-4.51-1.59c-.18-.07-.35-.14-.53-.21-.07-.03-.65-.28-.17-.07s-.1-.05-.16-.08c-.17-.08-.35-.16-.52-.23-.75-.34-1.5-.7-2.24-1.07-2.84-1.43-5.57-3.1-8.13-4.99-.24-.18-.91-.69-.31-.22-.3-.23-.6-.47-.89-.71-.64-.52-1.26-1.05-1.88-1.6-1.18-1.05-2.32-2.15-3.41-3.3s-2.14-2.34-3.13-3.57c-.12-.15-.24-.3-.36-.44-.04-.05-.43-.55-.12-.14s-.07-.09-.11-.15c-.11-.15-.23-.3-.34-.46-.49-.66-.96-1.34-1.43-2.02-1.77-2.62-3.34-5.39-4.69-8.25-.16-.34-.32-.69-.47-1.04-.13-.29-.45-1.05-.15-.32-.32-.76-.62-1.53-.9-2.3-.55-1.48-1.04-2.99-1.47-4.51s-.8-3.06-1.11-4.6c-.15-.74-.28-1.49-.4-2.24-.03-.17-.19-1.25-.11-.71s0-.07-.02-.15c-.03-.25-.06-.5-.09-.75-.34-3.13-.42-6.3-.22-9.44.05-.76.11-1.51.19-2.26.04-.38.09-.75.13-1.13-.11.92.03-.16.09-.49.24-1.49.55-2.97.93-4.43s.81-2.89,1.3-4.3c.24-.68.49-1.35.76-2.02.06-.16.47-1.12.25-.63s.02-.04.06-.12c.1-.22.19-.44.29-.66,1.25-2.73,2.72-5.35,4.39-7.85.4-.6.81-1.19,1.24-1.77.21-.29.43-.58.64-.87-.52.71.09-.11.29-.37.94-1.17,1.93-2.3,2.96-3.39s2.1-2.13,3.22-3.14c.53-.48,1.08-.95,1.63-1.41.28-.23.55-.46.84-.68.14-.11.28-.22.42-.33-.29.23-.45.34-.06.05,2.45-1.81,5.02-3.44,7.75-4.82.64-.32,1.28-.63,1.94-.93.15-.07,1.11-.49.61-.27s.04-.02.12-.05c.22-.09.44-.18.67-.26,1.39-.54,2.81-1.02,4.25-1.43,1.64-.47,3.31-.84,5-1.14.46-.08.91-.15,1.37-.22.01,0,.76-.1.32-.05s.31-.03.32-.03c.99-.11,1.98-.2,2.98-.26,3.83-.24,7.68-.09,11.5.33.23.03.46.05.69.08,0,0,.76.09.32.04s.31.04.32.05c.23.03.46.07.69.1,1,.15,1.99.32,2.99.51,1.92.36,3.83.77,5.73,1.24,3.82.93,7.6,2.06,11.34,3.29s7.27,2.51,10.87,3.85c2.21.82,5.03-.91,5.54-3.14.58-2.55-.78-4.66-3.14-5.54h0Z"/>
  <path class="cls-1" d="m2767.95,435.31c-22.15-12.57-51.02-9.2-70.63,6.62s-26.13,45.44-17.25,69.15c4.55,12.17,12.67,22.53,23.75,29.42s23.48,9.84,35.99,9.42,24.98-4.49,35.02-12.23c9.65-7.43,16.63-17.35,21.2-28.58,9.23-22.7,8.1-48.97,2.96-72.5-.64-2.94-1.37-5.86-2.16-8.76-.64-2.34-3.2-3.79-5.54-3.14-2.48.68-3.63,3.15-3.14,5.54,4.11,20.16,6.04,40.52,5.88,61.28-.16,20.8-2.39,41.01-6.77,61.21-4.35,20.05-10.78,39.92-19.15,58.4-8.54,18.85-19.12,36.78-31.65,53.26-11.94,15.7-26.15,30.25-41.55,42.85-15.19,12.43-32.31,23.37-50.13,32.21-17.74,8.8-36.45,15.58-55.92,20.22-19.46,4.63-38.7,6.91-58.82,6.75-5.03-.04-10.05-.23-15.06-.59-2.47-.18-4.93-.39-7.39-.64-1.23-.13-2.46-.26-3.69-.41-1.1-.13-2.3-.28-3.01-.38-10.5-1.44-21.51-3.33-30.35-9.48-6.94-4.83-11.41-12.33-13.91-20.15-2.9-9.06-3.6-17.5-3.77-27.03-.08-4.66.02-9.32.18-13.98.09-2.43-2.13-4.5-4.5-4.5-2.51,0-4.41,2.06-4.5,4.5-.68,18.84-.69,40.21,10.01,56.61,6.03,9.24,14.99,15.34,25.4,18.73,10.35,3.37,21.55,4.57,32.35,5.49,20.62,1.75,41.4.7,61.8-2.68,20.22-3.35,40.03-9.13,58.93-17.05,19.17-8.03,37.43-18.08,54.32-30.2,16.86-12.1,32.41-26.03,46.02-41.71,13.98-16.1,26.04-33.87,35.93-52.77,9.9-18.93,17.73-38.99,23.35-59.6s9.08-42,10.35-63.4c1.26-21.35.23-42.78-2.94-63.93-.77-5.16-1.69-10.29-2.73-15.4l-8.68,2.39c3.12,11.39,4.95,22.04,5.51,33.51s-.15,22.31-3.05,33.23c-1.47,5.52-3.08,9.87-5.53,14.58-1.24,2.38-2.61,4.69-4.14,6.9-.34.49-.68.98-1.03,1.46-.08.1-1.09,1.43-.65.87-.88,1.11-1.8,2.2-2.76,3.25-3.9,4.27-7.54,7.28-12.36,10.07s-9.53,4.55-15.33,5.76c-.7.15-1.4.28-2.11.4-.3.05-1.7.26-1.16.19-1.5.2-3.01.33-4.52.41-2.79.15-5.59.11-8.37-.12-.8-.07-1.59-.15-2.38-.24-.09-.01-.88-.12-.23-.03-.32-.05-.63-.09-.95-.14-1.42-.23-2.83-.51-4.22-.83-2.79-.65-5.54-1.5-8.21-2.54-.95-.37-1.95-.81-3.29-1.46s-2.54-1.3-3.77-2.02c-2.38-1.39-4.78-3.07-6.48-4.5-4.55-3.82-7.81-7.72-10.69-12.66-11.04-18.91-9.76-45.29,4.82-61.84,7.3-8.29,16.74-13.61,27.38-16.23,1.3-.32,2.61-.6,3.93-.84.7-.12,1.4-.24,2.1-.34.78-.11-.58.07.21-.02.47-.05.94-.11,1.41-.15,2.82-.27,5.66-.35,8.49-.23,5.29.23,10.17,1.14,15.6,3.11.66.24,1.32.49,1.98.76.82.34-.93-.44.44.19.29.13.57.26.86.39,1.29.6,2.54,1.26,3.78,1.96,5.04,2.86,9.59-4.91,4.54-7.77h0Z"/>
</svg>